<mxfile host="app.diagrams.net" modified="2022-10-20T09:46:05.410Z" agent="5.0 (Macintosh; Intel Mac OS X 10_15_7) AppleWebKit/537.36 (KHTML, like Gecko) Chrome/105.0.0.0 Safari/537.36" etag="M9DExXL_iFq0hmEujD8U" version="20.4.2" type="github">
  <diagram id="prtHgNgQTEPvFCAcTncT" name="Page-1">
    <mxGraphModel dx="1440" dy="794" grid="1" gridSize="10" guides="1" tooltips="1" connect="1" arrows="1" fold="1" page="1" pageScale="1" pageWidth="827" pageHeight="1169" math="0" shadow="0">
      <root>
        <mxCell id="0" />
        <mxCell id="1" parent="0" />
        <mxCell id="Xu5Bb9DvXguf_U5tg7rQ-3" value="Start" style="rounded=1;whiteSpace=wrap;html=1;" vertex="1" parent="1">
          <mxGeometry x="120" y="20" width="120" height="50" as="geometry" />
        </mxCell>
        <mxCell id="Xu5Bb9DvXguf_U5tg7rQ-12" value="" style="edgeStyle=orthogonalEdgeStyle;rounded=0;orthogonalLoop=1;jettySize=auto;html=1;" edge="1" parent="1" source="Xu5Bb9DvXguf_U5tg7rQ-2" target="Xu5Bb9DvXguf_U5tg7rQ-4">
          <mxGeometry relative="1" as="geometry" />
        </mxCell>
        <mxCell id="Xu5Bb9DvXguf_U5tg7rQ-2" value="明确数据需求，确定数据字段和逻辑" style="rounded=0;whiteSpace=wrap;html=1;" vertex="1" parent="1">
          <mxGeometry x="120" y="100" width="120" height="60" as="geometry" />
        </mxCell>
        <mxCell id="Xu5Bb9DvXguf_U5tg7rQ-14" style="edgeStyle=orthogonalEdgeStyle;rounded=0;orthogonalLoop=1;jettySize=auto;html=1;exitX=1;exitY=0.5;exitDx=0;exitDy=0;" edge="1" parent="1" source="Xu5Bb9DvXguf_U5tg7rQ-4" target="Xu5Bb9DvXguf_U5tg7rQ-16">
          <mxGeometry relative="1" as="geometry">
            <mxPoint x="300" y="410" as="targetPoint" />
          </mxGeometry>
        </mxCell>
        <mxCell id="Xu5Bb9DvXguf_U5tg7rQ-15" value="N" style="edgeLabel;html=1;align=center;verticalAlign=middle;resizable=0;points=[];" vertex="1" connectable="0" parent="Xu5Bb9DvXguf_U5tg7rQ-14">
          <mxGeometry x="-0.2308" y="1" relative="1" as="geometry">
            <mxPoint as="offset" />
          </mxGeometry>
        </mxCell>
        <mxCell id="Xu5Bb9DvXguf_U5tg7rQ-26" value="Y" style="edgeStyle=orthogonalEdgeStyle;rounded=0;orthogonalLoop=1;jettySize=auto;html=1;" edge="1" parent="1" source="Xu5Bb9DvXguf_U5tg7rQ-4" target="Xu5Bb9DvXguf_U5tg7rQ-25">
          <mxGeometry relative="1" as="geometry" />
        </mxCell>
        <mxCell id="Xu5Bb9DvXguf_U5tg7rQ-4" value="数据仓库是否&lt;br&gt;满足需求" style="rhombus;whiteSpace=wrap;html=1;" vertex="1" parent="1">
          <mxGeometry x="115" y="300" width="130" height="80" as="geometry" />
        </mxCell>
        <mxCell id="Xu5Bb9DvXguf_U5tg7rQ-6" value="" style="endArrow=classic;html=1;rounded=0;" edge="1" parent="1" source="Xu5Bb9DvXguf_U5tg7rQ-3" target="Xu5Bb9DvXguf_U5tg7rQ-2">
          <mxGeometry relative="1" as="geometry">
            <mxPoint x="240" y="180" as="sourcePoint" />
            <mxPoint x="340" y="180" as="targetPoint" />
          </mxGeometry>
        </mxCell>
        <mxCell id="Xu5Bb9DvXguf_U5tg7rQ-19" value="N" style="edgeStyle=orthogonalEdgeStyle;rounded=0;orthogonalLoop=1;jettySize=auto;html=1;" edge="1" parent="1" source="Xu5Bb9DvXguf_U5tg7rQ-16" target="Xu5Bb9DvXguf_U5tg7rQ-18">
          <mxGeometry relative="1" as="geometry" />
        </mxCell>
        <mxCell id="Xu5Bb9DvXguf_U5tg7rQ-22" value="" style="edgeStyle=orthogonalEdgeStyle;rounded=0;orthogonalLoop=1;jettySize=auto;html=1;" edge="1" parent="1" source="Xu5Bb9DvXguf_U5tg7rQ-16" target="Xu5Bb9DvXguf_U5tg7rQ-21">
          <mxGeometry relative="1" as="geometry" />
        </mxCell>
        <mxCell id="Xu5Bb9DvXguf_U5tg7rQ-23" value="Y" style="edgeLabel;html=1;align=center;verticalAlign=middle;resizable=0;points=[];" vertex="1" connectable="0" parent="Xu5Bb9DvXguf_U5tg7rQ-22">
          <mxGeometry x="-0.08" y="1" relative="1" as="geometry">
            <mxPoint as="offset" />
          </mxGeometry>
        </mxCell>
        <mxCell id="Xu5Bb9DvXguf_U5tg7rQ-16" value="数据源是否&lt;br&gt;满足需求" style="rhombus;whiteSpace=wrap;html=1;" vertex="1" parent="1">
          <mxGeometry x="310" y="300" width="130" height="80" as="geometry" />
        </mxCell>
        <mxCell id="Xu5Bb9DvXguf_U5tg7rQ-18" value="数据采购，&lt;br&gt;并进入数据源，&lt;br&gt;直至满足数据需求" style="rounded=0;whiteSpace=wrap;html=1;" vertex="1" parent="1">
          <mxGeometry x="480" y="310" width="120" height="60" as="geometry" />
        </mxCell>
        <mxCell id="Xu5Bb9DvXguf_U5tg7rQ-21" value="将mongo、mysql、kafka等数据源的目标数据表同步至数仓" style="whiteSpace=wrap;html=1;" vertex="1" parent="1">
          <mxGeometry x="315" y="200" width="120" height="60" as="geometry" />
        </mxCell>
        <mxCell id="Xu5Bb9DvXguf_U5tg7rQ-24" value="" style="endArrow=classic;html=1;rounded=0;" edge="1" parent="1" source="Xu5Bb9DvXguf_U5tg7rQ-21">
          <mxGeometry width="50" height="50" relative="1" as="geometry">
            <mxPoint x="240" y="270" as="sourcePoint" />
            <mxPoint x="180" y="230" as="targetPoint" />
          </mxGeometry>
        </mxCell>
        <mxCell id="Xu5Bb9DvXguf_U5tg7rQ-28" value="" style="edgeStyle=orthogonalEdgeStyle;rounded=0;orthogonalLoop=1;jettySize=auto;html=1;" edge="1" parent="1" source="Xu5Bb9DvXguf_U5tg7rQ-25" target="Xu5Bb9DvXguf_U5tg7rQ-27">
          <mxGeometry relative="1" as="geometry" />
        </mxCell>
        <mxCell id="Xu5Bb9DvXguf_U5tg7rQ-25" value="根据数仓规范，制定&lt;br&gt;数据处理流程，确定每一步流程的任务" style="whiteSpace=wrap;html=1;" vertex="1" parent="1">
          <mxGeometry x="120" y="430" width="120" height="60" as="geometry" />
        </mxCell>
        <mxCell id="Xu5Bb9DvXguf_U5tg7rQ-39" value="" style="edgeStyle=orthogonalEdgeStyle;rounded=0;orthogonalLoop=1;jettySize=auto;html=1;" edge="1" parent="1" source="Xu5Bb9DvXguf_U5tg7rQ-27" target="Xu5Bb9DvXguf_U5tg7rQ-37">
          <mxGeometry relative="1" as="geometry" />
        </mxCell>
        <mxCell id="Xu5Bb9DvXguf_U5tg7rQ-27" value="在原数据管理中，创建所需表格" style="whiteSpace=wrap;html=1;" vertex="1" parent="1">
          <mxGeometry x="120" y="530" width="120" height="60" as="geometry" />
        </mxCell>
        <mxCell id="Xu5Bb9DvXguf_U5tg7rQ-34" value="" style="edgeStyle=orthogonalEdgeStyle;rounded=0;orthogonalLoop=1;jettySize=auto;html=1;" edge="1" parent="1" source="Xu5Bb9DvXguf_U5tg7rQ-29" target="Xu5Bb9DvXguf_U5tg7rQ-33">
          <mxGeometry relative="1" as="geometry" />
        </mxCell>
        <mxCell id="Xu5Bb9DvXguf_U5tg7rQ-29" value="在调度平台中，编写任务程序，并组织运行方式" style="whiteSpace=wrap;html=1;" vertex="1" parent="1">
          <mxGeometry x="120" y="730" width="120" height="60" as="geometry" />
        </mxCell>
        <mxCell id="Xu5Bb9DvXguf_U5tg7rQ-36" value="" style="edgeStyle=orthogonalEdgeStyle;rounded=0;orthogonalLoop=1;jettySize=auto;html=1;" edge="1" parent="1" source="Xu5Bb9DvXguf_U5tg7rQ-33" target="Xu5Bb9DvXguf_U5tg7rQ-35">
          <mxGeometry relative="1" as="geometry" />
        </mxCell>
        <mxCell id="Xu5Bb9DvXguf_U5tg7rQ-33" value="redshift将结果同步至BI系统，并构建报表验证数据" style="whiteSpace=wrap;html=1;" vertex="1" parent="1">
          <mxGeometry x="120" y="820" width="120" height="60" as="geometry" />
        </mxCell>
        <mxCell id="Xu5Bb9DvXguf_U5tg7rQ-35" value="end" style="rounded=1;whiteSpace=wrap;html=1;" vertex="1" parent="1">
          <mxGeometry x="320" y="825" width="120" height="50" as="geometry" />
        </mxCell>
        <mxCell id="Xu5Bb9DvXguf_U5tg7rQ-40" value="" style="edgeStyle=orthogonalEdgeStyle;rounded=0;orthogonalLoop=1;jettySize=auto;html=1;" edge="1" parent="1" source="Xu5Bb9DvXguf_U5tg7rQ-37" target="Xu5Bb9DvXguf_U5tg7rQ-29">
          <mxGeometry relative="1" as="geometry" />
        </mxCell>
        <mxCell id="Xu5Bb9DvXguf_U5tg7rQ-37" value="在HQL查询中，编写并验证执行语句" style="whiteSpace=wrap;html=1;" vertex="1" parent="1">
          <mxGeometry x="120" y="630" width="120" height="60" as="geometry" />
        </mxCell>
      </root>
    </mxGraphModel>
  </diagram>
</mxfile>
